# xmcd
#
# Track frame offsets:
#	150
#	12387
#	25879
#	40453
#	53371
#	68486
#	83154
#	95246
#	109609
#	123675
#	138642
#	153549
#	166316
#	181831
#	195285
#	210249
#
# Disc length: 2999 seconds
#
# Revision: 1
# Processed by: cddbd v1.4b42PL1 Copyright (c) Steve Scherf et al.
# Submitted via: audiograbber 1.80
#
DISCID=cf0bb510
DTITLE=Ma Rainey - Nothing But The Blues - Ma Rainey
DYEAR=1900
DGENRE=
TTITLE0=Stormy Sea Blues
TTITLE1=Night Time Blues
TTITLE2=Explaning The Blues
TTITLE3=Army Camp Harmony Blues
TTITLE4=Countin' The Blues
TTITLE5=Cell Bound Blues
TTITLE6=Shave 'Em Dry Blues
TTITLE7=Toad Frog Blues
TTITLE8=Farewell Daddy Blues
TTITLE9=Jealous Hearted Blues
TTITLE10=Jelly Bean Blues
TTITLE11=Rough And Tumble Blues
TTITLE12=Goodbye Daddy Blues
TTITLE13=Lousiana Hoo Doo Blues
TTITLE14=See See Rider Blues
TTITLE15=Booze And Blues
EXTD=
EXTT0=
EXTT1=
EXTT2=
EXTT3=
EXTT4=
EXTT5=
EXTT6=
EXTT7=
EXTT8=
EXTT9=
EXTT10=
EXTT11=
EXTT12=
EXTT13=
EXTT14=
EXTT15=
PLAYORDER=
